<mxfile host="app.diagrams.net" agent="Mozilla/5.0 (Windows NT 10.0; Win64; x64) AppleWebKit/537.36 (KHTML, like Gecko) Chrome/127.0.0.0 Safari/537.36" version="24.7.6">
  <diagram name="Page-1" id="97916047-d0de-89f5-080d-49f4d83e522f">
    <mxGraphModel dx="555" dy="1482" grid="1" gridSize="10" guides="1" tooltips="1" connect="1" arrows="1" fold="1" page="1" pageScale="1.5" pageWidth="1169" pageHeight="827" background="none" math="0" shadow="0">
      <root>
        <mxCell id="0" />
        <mxCell id="1" parent="0" />
        <mxCell id="2" value="Conv1D" style="rounded=1;fillColor=#dae8fc;strokeColor=#6c8ebf;shadow=1;fontStyle=1;fontSize=14;" parent="1" vertex="1">
          <mxGeometry x="460" y="100" width="210" height="30" as="geometry" />
        </mxCell>
        <mxCell id="fiaKC2clBWvhTDcLvonp-55" value="" style="edgeStyle=orthogonalEdgeStyle;rounded=0;orthogonalLoop=1;jettySize=auto;html=1;" edge="1" parent="1" source="3" target="18">
          <mxGeometry relative="1" as="geometry" />
        </mxCell>
        <mxCell id="3" value="Batch Norm 1D" style="rounded=1;fillColor=#a20025;strokeColor=#6F0000;shadow=1;fontStyle=1;fontColor=#ffffff;fontSize=14;" parent="1" vertex="1">
          <mxGeometry x="460.25" y="150" width="210" height="30" as="geometry" />
        </mxCell>
        <mxCell id="18" value="Relu" style="rounded=1;fillColor=#994C00;strokeColor=#6D1F00;shadow=1;fontStyle=1;fontColor=#ffffff;fontSize=14;" parent="1" vertex="1">
          <mxGeometry x="460" y="200" width="210" height="30" as="geometry" />
        </mxCell>
        <mxCell id="29" value="" style="edgeStyle=elbowEdgeStyle;elbow=vertical;strokeWidth=4;endArrow=block;endFill=1;fontStyle=1;strokeColor=#23445D;" parent="1" source="2" target="3" edge="1">
          <mxGeometry x="22" y="165.5" width="100" height="100" as="geometry">
            <mxPoint x="22" y="265.5" as="sourcePoint" />
            <mxPoint x="122" y="165.5" as="targetPoint" />
          </mxGeometry>
        </mxCell>
        <mxCell id="fiaKC2clBWvhTDcLvonp-62" style="edgeStyle=orthogonalEdgeStyle;rounded=0;orthogonalLoop=1;jettySize=auto;html=1;entryX=0.5;entryY=0;entryDx=0;entryDy=0;" edge="1" parent="1" source="fiaKC2clBWvhTDcLvonp-58" target="fiaKC2clBWvhTDcLvonp-61">
          <mxGeometry relative="1" as="geometry" />
        </mxCell>
        <mxCell id="fiaKC2clBWvhTDcLvonp-58" value="MaxPooling" style="rounded=1;fillColor=#0000FF;strokeColor=none;shadow=1;gradientColor=none;fontStyle=1;fontColor=#FFFFFF;fontSize=14;" vertex="1" parent="1">
          <mxGeometry x="460.25" y="250" width="210" height="30" as="geometry" />
        </mxCell>
        <mxCell id="fiaKC2clBWvhTDcLvonp-59" value="Relu" style="rounded=1;fillColor=#10739E;strokeColor=none;shadow=1;gradientColor=none;fontStyle=1;fontColor=#FFFFFF;fontSize=14;" vertex="1" parent="1">
          <mxGeometry x="460.25" y="410" width="217" height="60" as="geometry" />
        </mxCell>
        <mxCell id="fiaKC2clBWvhTDcLvonp-60" value="avg pooling" style="rounded=1;fillColor=#10739E;strokeColor=none;shadow=1;gradientColor=none;fontStyle=1;fontColor=#FFFFFF;fontSize=14;" vertex="1" parent="1">
          <mxGeometry x="456.5" y="350" width="217" height="30" as="geometry" />
        </mxCell>
        <mxCell id="fiaKC2clBWvhTDcLvonp-63" style="edgeStyle=orthogonalEdgeStyle;rounded=0;orthogonalLoop=1;jettySize=auto;html=1;entryX=0.5;entryY=0;entryDx=0;entryDy=0;" edge="1" parent="1" source="fiaKC2clBWvhTDcLvonp-61" target="fiaKC2clBWvhTDcLvonp-60">
          <mxGeometry relative="1" as="geometry" />
        </mxCell>
        <mxCell id="fiaKC2clBWvhTDcLvonp-61" value="ResidualBlock" style="rounded=1;fillColor=#10739E;strokeColor=none;shadow=1;gradientColor=none;fontStyle=1;fontColor=#FFFFFF;fontSize=14;" vertex="1" parent="1">
          <mxGeometry x="456.75" y="300" width="217" height="30" as="geometry" />
        </mxCell>
      </root>
    </mxGraphModel>
  </diagram>
</mxfile>
